<svg xmlns="http://www.w3.org/2000/svg" class="graphdiagram" viewBox="-1465.0356873564685 154.1055832930793 1920 977"><g class="layer relationships"><g class="related-pair"><g class="relationship" transform="translate(-1039.9615492780022,541.467768636982) rotate(43.3837922075241)"><path class="relationship" d="M 89.18226787956077 4 L 114.39822921186948 4 L 114.39822921186948 16 L 146.39822921186948 0 L 114.39822921186948 -16 L 114.39822921186948 -4 L 89.18226787956077 -4 Z" fill="rgb(0, 0, 0)" stroke="rgb(51, 51, 51)" stroke-width="0px"/><text class="type" text-anchor="middle" baseline-shift="30%" alignment-baseline="alphabetic" x="101.79024854571512" y="0" font-size="50px" font-family="&quot;Gill Sans&quot;, &quot;Gill Sans MT&quot;, Calibri, sans-serif">SAVED</text></g></g><g class="related-pair"><g class="relationship" transform="translate(-858.6935631638429,712.7872759666875) rotate(-23.619470082710745)"><path class="relationship" d="M 103.01800197923811 4 L 268.21803096435076 4 L 268.21803096435076 16 L 300.21803096435076 0 L 268.21803096435076 -16 L 268.21803096435076 -4 L 103.01800197923811 -4 Z" fill="rgb(0, 0, 0)" stroke="rgb(51, 51, 51)" stroke-width="0px"/><text class="type" text-anchor="middle" baseline-shift="30%" alignment-baseline="alphabetic" x="185.61801647179442" y="0" font-size="50px" font-family="&quot;Gill Sans&quot;, &quot;Gill Sans MT&quot;, Calibri, sans-serif">OF</text></g></g><g class="related-pair"><g class="relationship" transform="translate(-54.042817711830516,846.2668972015377) rotate(-143.56418062608537)"><path class="relationship" d="M 103.01800197923811 4 L 353.8224915350756 4 L 353.8224915350756 16 L 385.8224915350756 0 L 353.8224915350756 -16 L 353.8224915350756 -4 L 103.01800197923811 -4 Z" fill="rgb(0, 0, 0)" stroke="rgb(51, 51, 51)" stroke-width="0px"/><text class="type" text-anchor="middle" baseline-shift="30%" alignment-baseline="alphabetic" x="-228.42024675715686" y="0" font-size="50px" font-family="&quot;Gill Sans&quot;, &quot;Gill Sans MT&quot;, Calibri, sans-serif" transform="rotate(180)">OF</text></g></g><g class="related-pair"><g class="relationship" transform="translate(25.90259915984262,390.35546652118813) rotate(162.95314394027363)"><path class="relationship" d="M 83.26983437792327 4 L 356.09652702468014 4 L 356.09652702468014 16 L 388.09652702468014 0 L 356.09652702468014 -16 L 356.09652702468014 -4 L 83.26983437792327 -4 Z" fill="rgb(0, 0, 0)" stroke="rgb(51, 51, 51)" stroke-width="0px"/></g></g></g><g class="layer nodes"><circle class="node node-id-0" r="74.18226787956077" fill="rgb(255, 255, 255)" stroke="rgb(0, 0, 0)" stroke-width="8px" cx="-1039.9615492780022" cy="541.467768636982"/><g class="caption"><text class="caption node" text-anchor="middle" alignment-baseline="central" x="-1039.9615492780022" y="541.467768636982" fill="rgb(51, 51, 51)" font-size="50px" font-family="&quot;Gill Sans&quot;, &quot;Gill Sans MT&quot;, Calibri, sans-serif">User</text></g><circle class="node node-id-1" r="88.01800197923811" fill="rgb(255, 255, 255)" stroke="rgb(0, 0, 0)" stroke-width="8px" cx="-858.6935631638429" cy="712.7872759666875"/><g class="caption"><text class="caption node" text-anchor="middle" alignment-baseline="central" x="-858.6935631638429" y="712.7872759666875" fill="rgb(51, 51, 51)" font-size="50px" font-family="&quot;Gill Sans&quot;, &quot;Gill Sans MT&quot;, Calibri, sans-serif">Listing</text></g><circle class="node node-id-2" r="68.26983437792327" fill="rgb(255, 255, 255)" stroke="rgb(0, 0, 0)" stroke-width="8px" cx="25.90259915984262" cy="390.35546652118813"/><g class="caption"><text class="caption node" text-anchor="middle" alignment-baseline="central" x="25.90259915984262" y="390.35546652118813" fill="rgb(51, 51, 51)" font-size="50px" font-family="&quot;Gill Sans&quot;, &quot;Gill Sans MT&quot;, Calibri, sans-serif">City</text></g><circle class="node node-id-3" r="112.37477616841198" fill="rgb(255, 255, 255)" stroke="rgb(0, 0, 0)" stroke-width="8px" cx="-466.9216459467164" cy="541.467768636982"/><g class="caption"><text class="caption node" text-anchor="middle" alignment-baseline="central" x="-466.9216459467164" y="541.467768636982" fill="rgb(51, 51, 51)" font-size="50px" font-family="&quot;Gill Sans&quot;, &quot;Gill Sans MT&quot;, Calibri, sans-serif">Property</text></g><circle class="node node-id-4" r="88.01800197923811" fill="rgb(255, 255, 255)" stroke="rgb(0, 0, 0)" stroke-width="8px" cx="-54.042817711830516" cy="846.2668972015377"/><g class="caption"><text class="caption node" text-anchor="middle" alignment-baseline="central" x="-54.042817711830516" y="846.2668972015377" fill="rgb(51, 51, 51)" font-size="50px" font-family="&quot;Gill Sans&quot;, &quot;Gill Sans MT&quot;, Calibri, sans-serif">Listing</text></g></g><g class="layer properties"><g class="speech-bubble node-speech-bubble" transform="translate(-1092.4163339394365,489.01298397554757) "><path class="speech-bubble-outline" transform="scale(-1,-1) " d="M 0 0 L 30 20 L 280.341796875 20 A 10 10 0 0 1 290.341796875 30 L 290.341796875 130 A 10 10 0 0 1 280.341796875 140 L 30 140 A 10 10 0 0 1 20 130 L 20 30 Z" fill="rgb(255, 255, 255)" stroke="rgb(0, 0, 0)" stroke-width="3px"/><text class="speech-bubble-content property-key" x="-146.650390625" y="-105" alignment-baseline="central" text-anchor="end" font-size="50px" font-family="&quot;Gill Sans&quot;, &quot;Gill Sans MT&quot;, Calibri, sans-serif" xml:space="preserve">id: </text><text class="speech-bubble-content property-key" x="-146.650390625" y="-55" alignment-baseline="central" text-anchor="end" font-size="50px" font-family="&quot;Gill Sans&quot;, &quot;Gill Sans MT&quot;, Calibri, sans-serif" xml:space="preserve">name: </text><text class="speech-bubble-content property-value" x="-146.650390625" y="-105" alignment-baseline="central" font-size="50px" font-family="&quot;Gill Sans&quot;, &quot;Gill Sans MT&quot;, Calibri, sans-serif">String</text><text class="speech-bubble-content property-value" x="-146.650390625" y="-55" alignment-baseline="central" font-size="50px" font-family="&quot;Gill Sans&quot;, &quot;Gill Sans MT&quot;, Calibri, sans-serif">String</text></g><g class="speech-bubble node-speech-bubble" transform="translate(-858.6935631638429,800.8052779459256) "><path class="speech-bubble-outline" transform="scale(1,1) " d="M 0 0 L -10 20 L -182.71484375 20 A 10 10 0 0 0 -192.71484375 30 L -192.71484375 180 A 10 10 0 0 0 -182.71484375 190 L 182.71484375 190 A 10 10 0 0 0 192.71484375 180 L 192.71484375 30 A 10 10 0 0 0 182.71484375 20 L 10 20 Z" fill="rgb(255, 255, 255)" stroke="rgb(0, 0, 0)" stroke-width="3px"/><text class="speech-bubble-content property-key" x="66.064453125" y="55" alignment-baseline="central" text-anchor="end" font-size="50px" font-family="&quot;Gill Sans&quot;, &quot;Gill Sans MT&quot;, Calibri, sans-serif" xml:space="preserve">listingId: </text><text class="speech-bubble-content property-key" x="66.064453125" y="105" alignment-baseline="central" text-anchor="end" font-size="50px" font-family="&quot;Gill Sans&quot;, &quot;Gill Sans MT&quot;, Calibri, sans-serif" xml:space="preserve">askingPrice: </text><text class="speech-bubble-content property-value" x="66.064453125" y="55" alignment-baseline="central" font-size="50px" font-family="&quot;Gill Sans&quot;, &quot;Gill Sans MT&quot;, Calibri, sans-serif">String</text><text class="speech-bubble-content property-value" x="66.064453125" y="105" alignment-baseline="central" font-size="50px" font-family="&quot;Gill Sans&quot;, &quot;Gill Sans MT&quot;, Calibri, sans-serif">String</text><text class="speech-bubble-content property-key" x="66.064453125" y="155" alignment-baseline="central" text-anchor="end" font-size="50px" font-family="&quot;Gill Sans&quot;, &quot;Gill Sans MT&quot;, Calibri, sans-serif" xml:space="preserve">bedRooms: </text><text class="speech-bubble-content property-value" x="66.064453125" y="155" alignment-baseline="central" font-size="50px" font-family="&quot;Gill Sans&quot;, &quot;Gill Sans MT&quot;, Calibri, sans-serif">Int</text></g><g class="speech-bubble node-speech-bubble" transform="translate(94.1724335377659,390.35546652118813) "><path class="speech-bubble-outline" transform="scale(1,1) " d="M 0 0 L 20 -10 L 20 -25 A 10 10 0 0 1 30 -35 L 280.341796875 -35 A 10 10 0 0 1 290.341796875 -25 L 290.341796875 25 A 10 10 0 0 1 280.341796875 35 L 30 35 A 10 10 0 0 1 20 25 L 20 10 Z" fill="rgb(255, 255, 255)" stroke="rgb(0, 0, 0)" stroke-width="3px"/><text class="speech-bubble-content property-key" x="163.69140625" y="0" alignment-baseline="central" text-anchor="end" font-size="50px" font-family="&quot;Gill Sans&quot;, &quot;Gill Sans MT&quot;, Calibri, sans-serif" xml:space="preserve">name: </text><text class="speech-bubble-content property-value" x="163.69140625" y="0" alignment-baseline="central" font-size="50px" font-family="&quot;Gill Sans&quot;, &quot;Gill Sans MT&quot;, Calibri, sans-serif">String</text></g><g class="speech-bubble relationship-speech-bubble" transform="translate(-965.9835516479933,611.3856530847602) "><path class="speech-bubble-outline" transform="scale(-1,1) " d="M 0 0 L 30 20 L 573.9453125 20 A 10 10 0 0 1 583.9453125 30 L 583.9453125 80 A 10 10 0 0 1 573.9453125 90 L 30 90 A 10 10 0 0 1 20 80 L 20 30 Z" fill="rgb(255, 255, 255)" stroke="rgb(0, 0, 0)" stroke-width="3px"/><text class="speech-bubble-content property-key" x="-347.0166015625" y="55" alignment-baseline="central" text-anchor="end" font-size="50px" font-family="&quot;Gill Sans&quot;, &quot;Gill Sans MT&quot;, Calibri, sans-serif" xml:space="preserve">createdAt: </text><text class="speech-bubble-content property-value" x="-347.0166015625" y="55" alignment-baseline="central" font-size="50px" font-family="&quot;Gill Sans&quot;, &quot;Gill Sans MT&quot;, Calibri, sans-serif">Date-Time field</text></g><g class="speech-bubble node-speech-bubble" transform="translate(-466.9216459467164,429.09299246857) "><path class="speech-bubble-outline" transform="scale(1,-1) " d="M 0 0 L -10 20 L -169.0673828125 20 A 10 10 0 0 0 -179.0673828125 30 L -179.0673828125 180 A 10 10 0 0 0 -169.0673828125 190 L 169.0673828125 190 A 10 10 0 0 0 179.0673828125 180 L 179.0673828125 30 A 10 10 0 0 0 169.0673828125 20 L 10 20 Z" fill="rgb(255, 255, 255)" stroke="rgb(0, 0, 0)" stroke-width="3px"/><text class="speech-bubble-content property-key" x="31.3232421875" y="-155" alignment-baseline="central" text-anchor="end" font-size="50px" font-family="&quot;Gill Sans&quot;, &quot;Gill Sans MT&quot;, Calibri, sans-serif" xml:space="preserve">address: </text><text class="speech-bubble-content property-key" x="31.3232421875" y="-105" alignment-baseline="central" text-anchor="end" font-size="50px" font-family="&quot;Gill Sans&quot;, &quot;Gill Sans MT&quot;, Calibri, sans-serif" xml:space="preserve">Location: </text><text class="speech-bubble-content property-key" x="31.3232421875" y="-55" alignment-baseline="central" text-anchor="end" font-size="50px" font-family="&quot;Gill Sans&quot;, &quot;Gill Sans MT&quot;, Calibri, sans-serif" xml:space="preserve">bounds: </text><text class="speech-bubble-content property-value" x="31.3232421875" y="-155" alignment-baseline="central" font-size="50px" font-family="&quot;Gill Sans&quot;, &quot;Gill Sans MT&quot;, Calibri, sans-serif">String</text><text class="speech-bubble-content property-value" x="31.3232421875" y="-105" alignment-baseline="central" font-size="50px" font-family="&quot;Gill Sans&quot;, &quot;Gill Sans MT&quot;, Calibri, sans-serif">Point</text><text class="speech-bubble-content property-value" x="31.3232421875" y="-55" alignment-baseline="central" font-size="50px" font-family="&quot;Gill Sans&quot;, &quot;Gill Sans MT&quot;, Calibri, sans-serif">[Point]</text></g><g class="speech-bubble node-speech-bubble" transform="translate(8.195308354179716,908.5050232675479) "><path class="speech-bubble-outline" transform="scale(1,1) " d="M 0 0 L 30 20 L 460.029296875 20 A 10 10 0 0 1 470.029296875 30 L 470.029296875 130 A 10 10 0 0 1 460.029296875 140 L 30 140 A 10 10 0 0 1 20 130 L 20 30 Z" fill="rgb(255, 255, 255)" stroke="rgb(0, 0, 0)" stroke-width="3px"/><text class="speech-bubble-content property-key" x="256.9287109375" y="55" alignment-baseline="central" text-anchor="end" font-size="50px" font-family="&quot;Gill Sans&quot;, &quot;Gill Sans MT&quot;, Calibri, sans-serif" xml:space="preserve">createdAt: </text><text class="speech-bubble-content property-value" x="256.9287109375" y="55" alignment-baseline="central" font-size="50px" font-family="&quot;Gill Sans&quot;, &quot;Gill Sans MT&quot;, Calibri, sans-serif">DateTime</text><text class="speech-bubble-content property-key" x="256.9287109375" y="105" alignment-baseline="central" text-anchor="end" font-size="50px" font-family="&quot;Gill Sans&quot;, &quot;Gill Sans MT&quot;, Calibri, sans-serif" xml:space="preserve">active: </text><text class="speech-bubble-content property-value" x="256.9287109375" y="105" alignment-baseline="central" font-size="50px" font-family="&quot;Gill Sans&quot;, &quot;Gill Sans MT&quot;, Calibri, sans-serif">Bool</text></g></g><g class="layer overlay"><circle class="node overlay" r="78.18226787956077" stroke="none" fill="rgba(255, 255, 255, 0)" cx="-1039.9615492780022" cy="541.467768636982"/><circle class="node ring" r="83.18226787956077" fill="none" stroke="rgba(255, 255, 255, 0)" stroke-width="10px" cx="-1039.9615492780022" cy="541.467768636982"/><circle class="node overlay" r="92.01800197923811" stroke="none" fill="rgba(255, 255, 255, 0)" cx="-858.6935631638429" cy="712.7872759666875"/><circle class="node ring" r="97.01800197923811" fill="none" stroke="rgba(255, 255, 255, 0)" stroke-width="10px" cx="-858.6935631638429" cy="712.7872759666875"/><circle class="node overlay" r="72.26983437792327" stroke="none" fill="rgba(255, 255, 255, 0)" cx="25.90259915984262" cy="390.35546652118813"/><circle class="node ring" r="77.26983437792327" fill="none" stroke="rgba(255, 255, 255, 0)" stroke-width="10px" cx="25.90259915984262" cy="390.35546652118813"/><path class="relationship overlay" fill="rgba(255, 255, 255, 0)" stroke="rgba(255, 255, 255, 0)" stroke-width="10px" transform="translate(-1039.9615492780022,541.467768636982) rotate(43.3837922075241)" d="M 89.18226787956077 4 L 114.39822921186948 4 L 114.39822921186948 16 L 146.39822921186948 0 L 114.39822921186948 -16 L 114.39822921186948 -4 L 89.18226787956077 -4 Z"/><path class="relationship overlay" fill="rgba(255, 255, 255, 0)" stroke="rgba(255, 255, 255, 0)" stroke-width="10px" transform="translate(-858.6935631638429,712.7872759666875) rotate(-23.619470082710745)" d="M 103.01800197923811 4 L 268.21803096435076 4 L 268.21803096435076 16 L 300.21803096435076 0 L 268.21803096435076 -16 L 268.21803096435076 -4 L 103.01800197923811 -4 Z"/><circle class="node overlay" r="116.37477616841198" stroke="none" fill="rgba(255, 255, 255, 0)" cx="-466.9216459467164" cy="541.467768636982"/><circle class="node ring" r="121.37477616841198" fill="none" stroke="rgba(255, 255, 255, 0)" stroke-width="10px" cx="-466.9216459467164" cy="541.467768636982"/><path class="relationship overlay" fill="rgba(255, 255, 255, 0)" stroke="rgba(255, 255, 255, 0)" stroke-width="10px" transform="translate(-54.042817711830516,846.2668972015377) rotate(-143.56418062608537)" d="M 103.01800197923811 4 L 353.8224915350756 4 L 353.8224915350756 16 L 385.8224915350756 0 L 353.8224915350756 -16 L 353.8224915350756 -4 L 103.01800197923811 -4 Z"/><circle class="node overlay" r="92.01800197923811" stroke="none" fill="rgba(255, 255, 255, 0)" cx="-54.042817711830516" cy="846.2668972015377"/><circle class="node ring" r="97.01800197923811" fill="none" stroke="rgba(255, 255, 255, 0)" stroke-width="10px" cx="-54.042817711830516" cy="846.2668972015377"/><path class="relationship overlay" fill="rgba(255, 255, 255, 0)" stroke="rgba(255, 255, 255, 0)" stroke-width="10px" transform="translate(25.90259915984262,390.35546652118813) rotate(162.95314394027363)" d="M 83.26983437792327 4 L 356.09652702468014 4 L 356.09652702468014 16 L 388.09652702468014 0 L 356.09652702468014 -16 L 356.09652702468014 -4 L 83.26983437792327 -4 Z"/></g></svg>